<svg width="124" height="27" viewBox="0 0 124 27" fill="none" xmlns="http://www.w3.org/2000/svg">
<g clip-path="url(#clip0_7_2059)">
<path d="M6.86809e-05 0.385498C1.4462 0.385498 2.89234 0.385498 4.23725 0.385498C4.54093 0.385498 4.62769 0.485449 4.62769 0.771007C4.62769 6.38221 4.62769 11.9791 4.62769 17.5903V17.9616C4.73553 17.8977 4.82126 17.8032 4.87355 17.6903L12.4513 6.49642C12.7116 6.11092 12.726 6.11092 12.9863 6.49642L24.2517 23.2444C24.3009 23.3187 24.327 23.4055 24.327 23.4942C24.327 23.583 24.3009 23.6698 24.2517 23.7441C23.9336 24.4152 23.6443 25.0862 23.3551 25.7715C23.3348 25.8445 23.2885 25.9078 23.2248 25.9498C23.161 25.9917 23.084 26.0096 23.008 26C22.2753 26 21.5378 26 20.7954 26C20.7082 26.0097 20.6201 25.9931 20.5426 25.9523C20.4651 25.9115 20.402 25.8485 20.3616 25.7715L15.8931 19.2751C14.8518 17.7759 13.8106 16.2625 12.7839 14.749C12.6248 14.5349 12.567 14.5349 12.4079 14.749C9.90607 18.3899 7.40428 22.0022 4.91693 25.6431C4.84207 25.7632 4.73468 25.8602 4.60692 25.9233C4.47916 25.9864 4.3361 26.0129 4.19386 26H-0.144531L6.86809e-05 0.385498Z" fill="#03AFDE"/>
<path d="M35.329 8.03846L33.3622 10.894L27.5777 19.4608C27.3463 19.7891 27.3174 19.7891 27.086 19.4608C23.2972 13.8638 19.5131 8.27166 15.7339 2.68426C15.6804 2.60628 15.6519 2.51428 15.6519 2.42012C15.6519 2.32596 15.6804 2.23396 15.7339 2.15598C16.052 1.4992 16.3413 0.828128 16.616 0.157068C16.6418 0.0806704 16.693 0.0151211 16.7612 -0.0289431C16.8295 -0.0730073 16.9108 -0.092995 16.992 -0.0856528C17.6862 -0.0856528 18.4382 -0.0856528 19.0745 -0.0856528C19.1923 -0.10006 19.3119 -0.0791797 19.4176 -0.0257187C19.5233 0.0277423 19.6103 0.111329 19.6674 0.214192C20.8098 1.89898 21.9667 3.58377 23.1236 5.25428L27.1439 11.251C27.1439 11.3366 27.2306 11.4223 27.3608 11.4794L28.0839 10.4371L35.0253 0.356958C35.0891 0.247507 35.1823 0.157603 35.2945 0.0971342C35.4068 0.0366658 35.5338 0.00799862 35.6616 0.0143027H39.7686C39.9711 0.0143027 40.0434 0.0142923 40.0289 0.271294C40.0217 0.328181 40.0217 0.385735 40.0289 0.442621V25.2005C40.0289 25.6145 40.0289 25.6145 39.5951 25.6145H35.8207C35.517 25.6145 35.4591 25.5289 35.4591 25.2433C35.4591 19.6321 35.4591 14.0209 35.4591 8.40967V8.06702L35.329 8.03846Z" fill="#03AFDE"/>
</g>
<path d="M58.16 0.129999L55.654 10H54.1L51.818 1.936L49.536 10H47.982L45.462 0.129999H46.876L48.766 8.516L51.104 0.129999H52.518L54.856 8.488L56.76 0.129999H58.16ZM64.7069 1.166V4.54H68.4589V5.52H64.7069V8.964H68.8789V10H63.4329V0.129999H68.8789V1.166H64.7069ZM79.1109 4.89C79.7176 5.02067 80.2076 5.31 80.5809 5.758C80.9636 6.206 81.1549 6.73333 81.1549 7.34C81.1549 8.14267 80.8796 8.78667 80.3289 9.272C79.7876 9.75733 78.9989 10 77.9629 10H74.2949V0.129999H77.9069C78.8962 0.129999 79.6476 0.349333 80.1609 0.787999C80.6742 1.22667 80.9309 1.82867 80.9309 2.594C80.9309 3.22867 80.7582 3.742 80.4129 4.134C80.0769 4.526 79.6429 4.778 79.1109 4.89ZM75.5689 4.456H77.6969C78.3222 4.456 78.7982 4.31133 79.1249 4.022C79.4609 3.73267 79.6289 3.32667 79.6289 2.804C79.6289 2.3 79.4656 1.90333 79.1389 1.614C78.8122 1.32467 78.3129 1.18 77.6409 1.18H75.5689V4.456ZM77.7249 8.936C78.3969 8.936 78.9149 8.782 79.2789 8.474C79.6522 8.166 79.8389 7.732 79.8389 7.172C79.8389 6.62133 79.6476 6.192 79.2649 5.884C78.8916 5.56667 78.3689 5.408 77.6969 5.408H75.5689V8.936H77.7249ZM92.7681 7.438C92.7681 7.90467 92.6561 8.33867 92.4321 8.74C92.2081 9.14133 91.8674 9.468 91.4101 9.72C90.9528 9.972 90.3881 10.098 89.7161 10.098C89.0628 10.098 88.4794 9.98133 87.9661 9.748C87.4621 9.50533 87.0561 9.17867 86.7481 8.768C86.4494 8.348 86.2768 7.872 86.2301 7.34H87.5881C87.6161 7.62 87.7094 7.89533 87.8681 8.166C88.0361 8.42733 88.2694 8.64667 88.5681 8.824C88.8761 8.992 89.2448 9.076 89.6741 9.076C90.2341 9.076 90.6634 8.92667 90.9621 8.628C91.2608 8.32933 91.4101 7.94667 91.4101 7.48C91.4101 7.07867 91.3028 6.752 91.0881 6.5C90.8828 6.248 90.6261 6.052 90.3181 5.912C90.0101 5.76267 89.5901 5.604 89.0581 5.436C88.4328 5.23067 87.9288 5.03933 87.5461 4.862C87.1728 4.67533 86.8508 4.4 86.5801 4.036C86.3188 3.672 86.1881 3.19133 86.1881 2.594C86.1881 2.08067 86.3094 1.628 86.5521 1.236C86.8041 0.843999 87.1588 0.540666 87.6161 0.325999C88.0828 0.111333 88.6288 0.00399935 89.2541 0.00399935C90.2248 0.00399935 90.9948 0.241999 91.5641 0.717999C92.1334 1.18467 92.4648 1.782 92.5581 2.51H91.1861C91.1114 2.118 90.9108 1.77267 90.5841 1.474C90.2574 1.17533 89.8141 1.026 89.2541 1.026C88.7408 1.026 88.3301 1.16133 88.0221 1.432C87.7141 1.69333 87.5601 2.06667 87.5601 2.552C87.5601 2.93467 87.6581 3.24733 87.8541 3.49C88.0594 3.72333 88.3114 3.91 88.6101 4.05C88.9088 4.18067 89.3194 4.33 89.8421 4.498C90.4768 4.70333 90.9854 4.89933 91.3681 5.086C91.7601 5.27267 92.0914 5.55733 92.3621 5.94C92.6328 6.31333 92.7681 6.81267 92.7681 7.438ZM99.5351 0.129999V10H98.2611V0.129999H99.5351ZM111.411 0.129999V1.166H108.625V10H107.351V1.166H104.565V0.129999H111.411ZM117.732 1.166V4.54H121.484V5.52H117.732V8.964H121.904V10H116.458V0.129999H121.904V1.166H117.732Z" fill="white"/>
<path d="M58.664 14.768V26H55.928V18.976L53.496 26H51.128L48.68 18.96V26H45.944V14.768H49.288L52.344 22.592L55.336 14.768H58.664ZM68.3614 23.936H64.1214L63.4174 26H60.5374L64.6814 14.768H67.8334L71.9774 26H69.0654L68.3614 23.936ZM67.6574 21.856L66.2494 17.696L64.8254 21.856H67.6574ZM81.9689 22.816C81.9689 23.4133 81.8142 23.9627 81.5049 24.464C81.2062 24.9653 80.7582 25.3653 80.1609 25.664C79.5742 25.9627 78.8595 26.112 78.0169 26.112C76.7475 26.112 75.7022 25.8027 74.8809 25.184C74.0595 24.5653 73.6115 23.7013 73.5369 22.592H76.4489C76.4915 23.0187 76.6409 23.3547 76.8969 23.6C77.1635 23.8453 77.4995 23.968 77.9049 23.968C78.2569 23.968 78.5342 23.872 78.7369 23.68C78.9395 23.488 79.0409 23.232 79.0409 22.912C79.0409 22.624 78.9449 22.384 78.7529 22.192C78.5715 22 78.3422 21.8453 78.0649 21.728C77.7875 21.6 77.4035 21.4507 76.9129 21.28C76.1982 21.0347 75.6115 20.8 75.1529 20.576C74.7049 20.3413 74.3155 20 73.9849 19.552C73.6649 19.0933 73.5049 18.5013 73.5049 17.776C73.5049 17.104 73.6755 16.5227 74.0169 16.032C74.3582 15.5413 74.8275 15.168 75.4249 14.912C76.0329 14.6453 76.7262 14.512 77.5049 14.512C78.7635 14.512 79.7609 14.8107 80.4969 15.408C81.2435 16.0053 81.6649 16.8267 81.7609 17.872H78.8009C78.7475 17.4987 78.6089 17.2053 78.3849 16.992C78.1715 16.768 77.8782 16.656 77.5049 16.656C77.1849 16.656 76.9235 16.7413 76.7209 16.912C76.5289 17.0827 76.4329 17.3333 76.4329 17.664C76.4329 17.9307 76.5182 18.16 76.6889 18.352C76.8702 18.5333 77.0942 18.6827 77.3609 18.8C77.6275 18.9173 78.0115 19.0667 78.5129 19.248C79.2382 19.4933 79.8302 19.7387 80.2889 19.984C80.7475 20.2187 81.1422 20.5653 81.4729 21.024C81.8035 21.4827 81.9689 22.08 81.9689 22.816ZM92.4095 14.688V16.864H89.3375V26H86.5855V16.864H83.5455V14.688H92.4095ZM97.0988 16.864V19.232H100.923V21.296H97.0988V23.808H101.403V26H94.3628V14.688H101.403V16.864H97.0988ZM109.565 26L107.117 21.728H106.493V26H103.757V14.688H108.429C109.325 14.688 110.082 14.8427 110.701 15.152C111.319 15.4613 111.783 15.888 112.093 16.432C112.402 16.9653 112.557 17.5787 112.557 18.272C112.557 19.0933 112.327 19.792 111.869 20.368C111.421 20.944 110.765 21.3387 109.901 21.552L112.589 26H109.565ZM106.493 19.856H108.189C108.733 19.856 109.133 19.7387 109.389 19.504C109.645 19.2587 109.773 18.9013 109.773 18.432C109.773 17.984 109.639 17.632 109.373 17.376C109.117 17.12 108.722 16.992 108.189 16.992H106.493V19.856ZM122.856 22.816C122.856 23.4133 122.702 23.9627 122.392 24.464C122.094 24.9653 121.646 25.3653 121.048 25.664C120.462 25.9627 119.747 26.112 118.904 26.112C117.635 26.112 116.59 25.8027 115.768 25.184C114.947 24.5653 114.499 23.7013 114.424 22.592H117.336C117.379 23.0187 117.528 23.3547 117.784 23.6C118.051 23.8453 118.387 23.968 118.792 23.968C119.144 23.968 119.422 23.872 119.624 23.68C119.827 23.488 119.928 23.232 119.928 22.912C119.928 22.624 119.832 22.384 119.64 22.192C119.459 22 119.23 21.8453 118.952 21.728C118.675 21.6 118.291 21.4507 117.8 21.28C117.086 21.0347 116.499 20.8 116.04 20.576C115.592 20.3413 115.203 20 114.872 19.552C114.552 19.0933 114.392 18.5013 114.392 17.776C114.392 17.104 114.563 16.5227 114.904 16.032C115.246 15.5413 115.715 15.168 116.312 14.912C116.92 14.6453 117.614 14.512 118.392 14.512C119.651 14.512 120.648 14.8107 121.384 15.408C122.131 16.0053 122.552 16.8267 122.648 17.872H119.688C119.635 17.4987 119.496 17.2053 119.272 16.992C119.059 16.768 118.766 16.656 118.392 16.656C118.072 16.656 117.811 16.7413 117.608 16.912C117.416 17.0827 117.32 17.3333 117.32 17.664C117.32 17.9307 117.406 18.16 117.576 18.352C117.758 18.5333 117.982 18.6827 118.248 18.8C118.515 18.9173 118.899 19.0667 119.4 19.248C120.126 19.4933 120.718 19.7387 121.176 19.984C121.635 20.2187 122.03 20.5653 122.36 21.024C122.691 21.4827 122.856 22.08 122.856 22.816Z" fill="white"/>
<defs>
<clipPath id="clip0_7_2059">
<rect width="40" height="26" fill="white"/>
</clipPath>
</defs>
</svg>
